<?xml version="1.0" standalone="no"?>
<!DOCTYPE svg PUBLIC "-//W3C//DTD SVG 20010904//EN"
 "http://www.w3.org/TR/2001/REC-SVG-20010904/DTD/svg10.dtd">
<svg version="1.0" xmlns="http://www.w3.org/2000/svg"
 width="600.000000pt" height="600.000000pt" viewBox="0 0 600.000000 600.000000"
 preserveAspectRatio="xMidYMid meet">
<metadata>
Created by potrace 1.11, written by Peter Selinger 2001-2013
</metadata>
<g transform="translate(0.000000,600.000000) scale(0.100000,-0.100000)"
fill="#000000" stroke="none">
<path d="M3110 5530 c0 -22 0 -43 0 -47 -1 -4 49 -17 110 -29 198 -39 250 -82
250 -209 0 -39 -5 -98 -11 -131 -61 -345 -766 -3924 -784 -3990 -61 -209 -161
-362 -290 -446 -149 -97 -347 -94 -485 7 -47 34 -130 143 -130 170 0 7 31 23
73 35 185 56 331 175 405 330 68 143 90 321 56 454 -57 224 -272 371 -515 353
-206 -16 -381 -138 -473 -329 -57 -119 -77 -213 -77 -353 0 -428 272 -758 718
-871 271 -68 641 -49 930 50 487 165 817 584 972 1231 16 66 169 840 340 1720
171 880 321 1643 332 1695 46 204 98 252 310 287 57 9 105 17 106 18 0 0 4 21
8 48 l7 47 -926 0 -926 0 0 -40z"/>
</g>
</svg>
